<?xml version="1.0" encoding="utf-8" ?>
<svg xmlns="http://www.w3.org/2000/svg" xmlns:xlink="http://www.w3.org/1999/xlink" width="1024" height="1024">
	<path fill="#DEDEDE" transform="scale(2 2)" d="M175.522 339.255L422.369 339.255L422.369 363.466L191.235 363.461C187.066 363.456 175.801 361.39 175.522 365.351C175.647 356.664 175.606 347.943 175.522 339.255Z"/>
	<path fill="#E33913" transform="scale(2 2)" d="M142.501 179.458C142.5 179.407 142.498 179.355 142.497 179.304L142.487 150.91C142.486 146.177 141.909 139.166 142.938 134.644C146.845 117.468 161.867 118.227 175.137 118.235L303.519 118.249L423.926 118.231C435.894 118.22 449.438 117.359 453.368 132.755C454.693 137.949 454.04 145.754 454.04 151.28L454.028 179.458C445.365 179.625 436.668 179.46 428.001 179.458L303.519 179.458L169.853 179.458C160.789 179.081 151.582 179.498 142.501 179.458Z"/>
	<path fill="#FDC901" transform="scale(2 2)" d="M405.754 136.301C421.739 134.881 424.466 156.822 409.432 160.223C393.371 161.392 390.254 140.261 405.754 136.301Z"/>
	<path fill="#FDC901" transform="scale(2 2)" d="M377.312 136.301C391.906 134.993 396.353 154.082 381.833 160.223C363.608 161.362 361.279 139.522 377.312 136.301Z"/>
	<path fill="#FDC901" transform="scale(2 2)" d="M348.583 136.301C364.728 135.149 366.883 157.548 351.059 160.223C335.497 160.897 331.902 139.809 348.583 136.301Z"/>
	<path fill="#FDC901" transform="scale(2 2)" d="M318.98 136.301C334.88 134.902 338.133 156.526 322.404 160.223C306.413 161.458 302.9 139.458 318.98 136.301Z"/>
	<path fill="#FDC901" transform="scale(2 2)" d="M142.501 179.458C151.582 179.498 160.789 179.081 169.853 179.458L303.519 179.458L428.001 179.458C436.668 179.46 445.365 179.625 454.028 179.458L454.038 277.08C454.039 280.819 454.386 284.996 453.758 288.669C451.055 304.473 437.891 306.111 425.242 306.103L175.522 306.086L175.538 328.111C175.544 331.805 175.777 335.574 175.522 339.255C175.606 347.943 175.647 356.664 175.522 365.351C175.712 397.714 166.242 392.716 140.483 392.723L80.2498 392.719C67.6339 392.713 57.5646 392.672 57.1996 376.688C56.835 360.729 57.1738 344.69 57.1748 328.722L57.1571 314.026C57.1445 300.389 59.2114 293.086 74.6395 293.294C74.8032 287.745 74.5888 282.173 74.7097 276.617C75.5033 240.141 120.197 223.282 142.179 246.452L142.501 246.438C142.029 241.423 142.488 236.075 142.492 231.014L142.504 196.433C142.507 190.822 142.875 185.041 142.501 179.458ZM169.853 179.458L169.844 259.175C169.837 278.383 173.557 279.428 192.251 279.428L360.567 279.411C376.619 279.411 392.721 279.694 408.766 279.434C425.552 279.161 428.007 267.651 428.009 253.667L428.001 179.458L303.519 179.458L169.853 179.458ZM74.6395 293.294L91.8519 293.294L138.228 293.294C140.706 293.872 152.658 293.372 155.627 293.294C155.554 274.715 157.843 260.665 142.501 246.438L142.179 246.452C120.197 223.282 75.5033 240.141 74.7097 276.617C74.5888 282.173 74.8032 287.745 74.6395 293.294Z"/>
	<path fill="#9C4400" transform="scale(2 2)" d="M114.526 313.101C133.027 311.371 145.237 335.194 131.368 348.508C129.664 350.144 127.715 351.518 125.974 353.125C125.692 361.715 127.759 369.336 117.722 372.639C104.665 374.545 105.158 362.096 105.185 353.125C99.7322 348.328 95.6681 344.119 94.8667 336.541C93.5835 324.407 102.619 314.165 114.526 313.101Z"/>
	<path fill="#DEDEDE" transform="scale(2 2)" d="M74.6395 293.294C74.8032 287.745 74.5888 282.173 74.7097 276.617C75.5033 240.141 120.197 223.282 142.179 246.452L142.501 246.438C157.843 260.665 155.554 274.715 155.627 293.294C152.658 293.372 140.706 293.872 138.228 293.294L91.8519 293.294L74.6395 293.294ZM91.8519 293.294L138.228 293.294C138.364 293.218 138.44 293.065 138.537 292.943C137.726 281.424 140.516 269.317 131.663 260.222C122.85 251.168 107.722 250.994 98.7686 260.01C90.1784 268.66 91.8415 282.121 91.8519 293.294Z"/>
	<path fill="#FDC901" transform="scale(2 2)" d="M211.734 203.381L222.722 203.381L222.722 211.702C223.784 212.277 224.952 212.693 226.07 213.151C228.581 211.78 230.688 209.584 232.898 207.773C235.483 210.398 238.216 212.871 240.743 215.555C234.441 222.262 232.948 225.944 244.584 225.265C244.646 229.426 244.587 233.595 244.584 237.756C234.727 237.631 232.575 239.009 240.743 246.97C238.19 249.521 235.368 251.685 232.898 254.368C230.409 252.867 228.442 250.815 226.07 249.19C221.548 250.626 222.622 252.817 222.722 257.063C222.477 259.546 213.938 258.357 211.734 258.337C211.672 254.366 213.193 250.85 208.716 249.19C206.072 250.537 204.214 252.217 202.181 254.368C199.894 251.774 197.467 249.357 194.969 246.97C200.665 239.443 202.843 237.816 191.034 237.756L191.034 225.265L197.988 225.265C198.836 224.071 199.37 222.938 199.897 221.583C198.449 219.316 196.896 217.432 194.969 215.555C196.968 212.609 199.619 210.219 202.181 207.773C204.099 209.997 206.105 211.795 208.716 213.151C213.289 210.968 211.617 207.806 211.734 203.381Z"/>
	<path fill="#FDC901" transform="scale(2 2)" d="M290.787 203.381C294.77 203.523 298.761 203.43 302.746 203.381C302.75 208.014 300.977 211.058 306.114 213.151C308.555 211.829 310.518 209.684 312.501 207.773C314.888 210.562 317.44 213.103 320.166 215.555C312.031 223.515 314.003 226 324.293 225.265L324.293 237.756C314.04 237.685 312.091 238.354 320.166 246.97C317.411 249.294 315.102 251.912 312.501 254.368C303.534 248.12 303.317 246.304 302.76 258.091L302.746 258.337C298.761 258.36 294.772 258.413 290.787 258.337L290.871 257.573C292.037 246.415 287.06 249.46 281.338 254.368C278.725 251.954 276.218 249.412 273.626 246.97C279.837 239.84 281.603 237.522 269.491 237.756C269.371 233.605 269.485 229.42 269.491 225.265C273.844 225.463 276.927 226.562 278.102 221.583C276.96 219.37 275.204 217.468 273.626 215.555C275.656 212.288 278.216 209.981 281.338 207.773C288.272 218.543 290.861 212.295 290.787 203.381Z"/>
	<path fill="#FDC901" transform="scale(2 2)" d="M366.619 203.381L378.46 203.381C378.515 214.121 379.517 214.006 388.158 207.773C390.813 210.261 393.699 212.769 396.031 215.555C392.595 219.589 391.018 219.594 393.01 225.265C395.724 225.606 398.243 225.461 400.954 225.265C400.909 229.428 400.935 233.593 400.954 237.756L393.01 237.756C392.144 238.825 391.562 239.854 390.989 241.089C392.457 243.109 394.264 244.697 396.031 246.438C393.004 248.754 390.5 251.367 388.158 254.368C386.034 252.805 384.207 250.839 381.833 249.65C380.557 250.321 379.482 250.956 378.46 251.995C378.394 253.587 379.024 257.03 378.129 258.281L377.312 258.337L366.619 258.337C366.593 249.294 365.284 246.414 357.525 254.368C354.704 251.975 352.363 249.23 349.953 246.438C351.55 244.543 353.261 242.82 355.03 241.089C354.522 239.955 353.99 238.856 353.411 237.756C350.76 237.607 348.076 237.724 345.421 237.756C345.325 233.598 345.363 229.424 345.421 225.265C348.082 225.519 350.748 225.44 353.411 225.265C354.855 220.065 353.708 219.47 349.953 215.555C352.127 212.738 354.97 210.253 357.525 207.773C364.055 212.405 368.006 217.106 366.619 203.381Z"/>
</svg>
